# xmcd
#
# Track frame offsets:
#	150
#	17362
#	31177
#	46375
#	60355
#	75250
#	90600
#	100990
#	113475
#	127822
#	142375
#
# Disc length: 2088 seconds
#
# Revision: 3
# Processed by: cddbd v1.5.2PL0 Copyright (c) Steve Scherf et al.
# Submitted via: audiograbber 1.83.01
#
DISCID=7a08260b
DTITLE=Waylon Jennings and Willie Nelson - WW II - Waylon and Willie
DYEAR=1982
DGENRE=Country
TTITLE0=Mr. Shuck and Jive
TTITLE1=Roman candles
TTITLE2=(Sittin' on) The dock of the bay
TTITLE3=The year that Clayton Delaney died
TTITLE4=Lady in the harbor
TTITLE5=May I borrow some sugar from you
TTITLE6=Last cowboy song
TTITLE7=Heroes
TTITLE8=The teddy bear song
TTITLE9=Write your own songs
TTITLE10=The old mother's locket trick
EXTD=
EXTT0=
EXTT1=
EXTT2=
EXTT3=
EXTT4=
EXTT5=
EXTT6=
EXTT7=
EXTT8=
EXTT9=
EXTT10=
PLAYORDER=
